# xmcd
#
# Track frame offsets: 
#        150
#        11579
#        28821
#        40523
#        50964
#        64017
#        77295
#        89969
#        104596
#        119153
#        128828
#        144336
#
# Disc length: 2117 seconds
#
# Revision: 3
# Processed by: cddbd v1.5.2PL0 Copyright (c) Steve Scherf et al.
# Submitted via: ExactAudioCopyFreeDBPlugin 1.0
#
DISCID=a908430c
DTITLE=Various Artist - Best of the Blues -  Disc 2
DYEAR=1900
DGENRE=Blues
TTITLE0=Johnson, Robert - Cross Road Blues
TTITLE1=Davis, Blind John - Everyday I Have The Blues
TTITLE2=Waters, Muddy - You're Gonna Miss Me When I'm Gone
TTITLE3=Hopkins, Sam "Lightnin" - You're Gonna Miss Me
TTITLE4=Walker, T-Bone - My Baby Left Me (Blues)
TTITLE5=Turner, Big Joe - Its The Same Old Story
TTITLE6=Hooker, John Lee - Please Don't Go
TTITLE7=McTell, Blind Willie - Lonesome Day Blues
TTITLE8=Page, Hot Lips - My Gal Is Gone
TTITLE9=Leadbelly - Midnight Special
TTITLE10=Smith, Bessie - Down Hearted Blues
TTITLE11=Terry, Sonny - Hot Headed Woman
EXTD=
EXTT0=
EXTT1=
EXTT2=
EXTT3=
EXTT4=
EXTT5=
EXTT6=
EXTT7=
EXTT8=
EXTT9=
EXTT10=
EXTT11=
PLAYORDER=
